<?xml version="1.0" encoding="UTF-8" standalone="no"?>
<!-- Created with Inkscape (http://www.inkscape.org/) -->

<svg
   xmlns:dc="http://purl.org/dc/elements/1.1/"
   xmlns:cc="http://creativecommons.org/ns#"
   xmlns:rdf="http://www.w3.org/1999/02/22-rdf-syntax-ns#"
   xmlns:svg="http://www.w3.org/2000/svg"
   xmlns="http://www.w3.org/2000/svg"
   xmlns:xlink="http://www.w3.org/1999/xlink"
   xmlns:sodipodi="http://sodipodi.sourceforge.net/DTD/sodipodi-0.dtd"
   xmlns:inkscape="http://www.inkscape.org/namespaces/inkscape"
   width="470.51785"
   height="213.94823"
   id="svg2"
   sodipodi:version="0.32"
   inkscape:version="0.48.1 "
   version="1.0"
   sodipodi:docname="zeimusu_Recorder_and_music_black_white_line_art_coloring_book_colouring.svg"
   inkscape:output_extension="org.inkscape.output.svg.inkscape">
  <sodipodi:namedview
     id="base"
     pagecolor="#ffffff"
     bordercolor="#666666"
     borderopacity="1.0"
     gridtolerance="10000"
     guidetolerance="10"
     objecttolerance="10"
     inkscape:pageopacity="0.0"
     inkscape:pageshadow="2"
     inkscape:zoom="0.88516892"
     inkscape:cx="190.92467"
     inkscape:cy="272.73769"
     inkscape:document-units="px"
     inkscape:current-layer="layer1"
     inkscape:window-width="1152"
     inkscape:window-height="841"
     inkscape:window-x="370"
     inkscape:window-y="4"
     showgrid="false"
     inkscape:window-maximized="0" />
  <defs
     id="defs4">
    <linearGradient
       y2="0.5"
       y1="0.5"
       xlink:href="#linearGradient830"
       x2="1"
       x1="-1.0164395e-018"
       id="linearGradient834" />
    <radialGradient
       xlink:href="#linearGradient830"
       id="radialGradient833" />
    <linearGradient
       id="linearGradient830">
      <stop
         style="stop-color:#000;stop-opacity:1;"
         offset="0"
         id="stop831" />
      <stop
         style="stop-color:#fff;stop-opacity:1;"
         offset="1"
         id="stop832" />
    </linearGradient>
  </defs>
  <metadata
     id="metadata7">
    <rdf:RDF>
      <cc:Work
         rdf:about="">
        <dc:format>image/svg+xml</dc:format>
        <dc:type
           rdf:resource="http://purl.org/dc/dcmitype/StillImage" />
      </cc:Work>
    </rdf:RDF>
  </metadata>
  <g
     inkscape:label="Layer 1"
     id="layer1"
     transform="translate(-329.63113,-317.85029)"
     inkscape:groupmode="layer">
    <g
       id="g3023">
      <path
         id="path2307"
         transform="translate(273.82273,197.27724)"
         sodipodi:nodetypes="csc"
         d="M 70.043128,210.67439 C 115.23224,115.77725 208.99966,108.99888 302.76707,188.07983 C 387.06893,259.17777 476.74517,177.91228 483.52353,129.33399"
         style="opacity:1;fill:none;fill-opacity:1;fill-rule:nonzero;stroke:#000000;stroke-width:1;stroke-linecap:round;stroke-miterlimit:4;stroke-dasharray:none;stroke-dashoffset:0;stroke-opacity:1" />
      <path
         style="opacity:1;fill:none;fill-opacity:1;fill-rule:nonzero;stroke:#000000;stroke-width:1;stroke-linecap:round;stroke-miterlimit:4;stroke-dasharray:none;stroke-dashoffset:0;stroke-opacity:1"
         d="M 70.043128,210.67439 C 115.23224,115.77725 208.99966,108.99888 302.76707,188.07983 C 387.06893,259.17777 476.74517,177.91228 483.52353,129.33399"
         sodipodi:nodetypes="csc"
         transform="translate(276.83983,224.24259)"
         id="path2539" />
      <path
         id="path2541"
         transform="translate(276.83983,251.20794)"
         sodipodi:nodetypes="csc"
         d="M 70.043128,210.67439 C 115.23224,115.77725 208.99966,108.99888 302.76707,188.07983 C 387.06893,259.17777 476.74517,177.91228 483.52353,129.33399"
         style="opacity:1;fill:none;fill-opacity:1;fill-rule:nonzero;stroke:#000000;stroke-width:1;stroke-linecap:round;stroke-miterlimit:4;stroke-dasharray:none;stroke-dashoffset:0;stroke-opacity:1" />
      <path
         style="opacity:1;fill:none;fill-opacity:1;fill-rule:nonzero;stroke:#000000;stroke-width:1;stroke-linecap:round;stroke-miterlimit:4;stroke-dasharray:none;stroke-dashoffset:0;stroke-opacity:1"
         d="M 70.043128,210.67439 C 115.23224,115.77725 208.99966,108.99888 302.76707,188.07983 C 387.06893,259.17777 476.74517,177.91228 483.52353,129.33399"
         sodipodi:nodetypes="csc"
         transform="translate(281.36549,278.92757)"
         id="path2543" />
      <path
         id="path2545"
         transform="translate(284.38259,306.64719)"
         sodipodi:nodetypes="csc"
         d="M 70.043128,210.67439 C 115.23224,115.77725 208.99966,108.99888 302.76707,188.07983 C 387.06893,259.17777 476.74517,177.91228 483.52353,129.33399"
         style="opacity:1;fill:none;fill-opacity:1;fill-rule:nonzero;stroke:#000000;stroke-width:1;stroke-linecap:round;stroke-miterlimit:4;stroke-dasharray:none;stroke-dashoffset:0;stroke-opacity:1" />
      <path
         id="path54110"
         transform="matrix(1.4373625,0,0,1.2817685,371.76439,311.40768)"
         d="M 22.5625,9.84375 C 22.21054,9.8804787 21.89599,10.057818 21.6875,10.34375 C 21.47901,10.629682 21.39611,10.997414 21.46875,11.34375 C 24.562309,27.695418 25.697314,42.083831 24.9375,55.53125 C 23.126388,53.287551 20.17468,51.812501 16.84375,51.8125 C 11.339695,51.8125 6.8749998,55.80216 6.875,60.71875 C 6.875,65.63534 11.339695,69.625002 16.84375,69.625 C 21.730902,69.625 25.805394,66.490733 26.65625,62.34375 C 26.840665,62.148845 26.971233,61.912648 27,61.625 C 28.265127,48.973815 27.731816,35.5695 25.53125,20.71875 C 33.013622,25.802715 40.745269,30.71123 51.125,33.25 C 51.820375,37.659443 52.363367,43.079488 52.5625,48.5625 C 52.805984,55.266658 52.489981,61.997903 51.5625,66.78125 C 49.973496,63.744466 46.529539,61.625001 42.53125,61.625 C 37.027195,61.625 32.562501,65.614659 32.5625,70.53125 C 32.5625,75.44784 37.027194,79.437497 42.53125,79.4375 C 47.065328,79.4375 50.884515,76.734053 52.09375,73.03125 C 52.177488,72.945551 52.254269,72.861741 52.3125,72.75 C 54.93842,67.689155 55.4128,58.145401 55.0625,48.5 C 54.7122,38.854599 53.43781,29.341817 51.8125,24.625 C 51.67156,24.215466 51.32868,23.908062 50.90625,23.8125 C 39.70956,21.205233 31.71919,15.745835 23.40625,10.0625 C 23.16035,9.8907192 22.86089,9.8130797 22.5625,9.84375 z M 24.40625,13.71875 C 31.76008,18.705105 39.4041,23.477734 49.5625,26 C 49.936178,27.172796 50.310095,28.730295 50.65625,30.53125 C 40.40121,27.810543 32.828749,22.695745 25,17.34375 C 24.803446,16.135718 24.624334,14.946587 24.40625,13.71875 z"
         style="fill:#000000;fill-opacity:1;fill-rule:nonzero;stroke:none;stroke-width:0.54175824;stroke-linecap:butt;stroke-linejoin:miter;stroke-miterlimit:4;stroke-dasharray:none;stroke-opacity:1" />
      <path
         sodipodi:nodetypes="cssccssscsccc"
         id="path2567"
         transform="matrix(-1,0,0,-1,411.73789,544.03443)"
         d="M -69.90625,114.71875 C -70.012439,114.71151 -70.142776,114.74017 -70.25,114.75 C -70.755896,114.79708 -71.200324,115.0085 -71.5,115.375 C -71.799679,115.7415 -71.91691,116.21233 -71.8125,116.65625 C -67.365931,137.6153 -65.720372,156.07602 -66.8125,173.3125 C -69.415725,170.43659 -73.680996,168.53125 -78.46875,168.53125 C -86.380074,168.53125 -92.78125,173.63557 -92.78125,179.9375 C -92.781246,186.23943 -86.380072,191.375 -78.46875,191.375 C -71.444142,191.37499 -65.566739,187.34672 -64.34375,182.03125 C -64.078679,181.78143 -63.885099,181.46245 -63.84375,181.09375 C -62.025306,164.87785 -62.805739,147.72272 -65.96875,128.6875 L -69.03125,115.03125 C -69.296338,114.86611 -69.587684,114.74048 -69.90625,114.71875 z"
         style="fill:#000000;fill-opacity:1;fill-rule:nonzero;stroke:none;stroke-width:0.54175824;stroke-linecap:butt;stroke-linejoin:miter;stroke-miterlimit:4;stroke-dasharray:none;stroke-opacity:1" />
      <path
         sodipodi:nodetypes="ccscssscssscccsccssscsccccc"
         style="fill:#000000;fill-opacity:1;fill-rule:nonzero;stroke:none;stroke-width:0.54175824;stroke-linecap:butt;stroke-linejoin:miter;stroke-miterlimit:4;stroke-dasharray:none;stroke-opacity:1"
         d="M 50.65625,30.53125 C 51.002405,32.332205 50.429625,28.840557 51.125,33.25 C 51.820375,37.659443 52.363367,43.079488 52.5625,48.5625 C 52.805984,55.266658 53.133924,55.540234 53.733937,55.580121 C 52.144933,52.543337 48.700976,50.423872 44.702687,50.423871 C 39.198632,50.423871 34.733938,54.41353 34.733937,59.330121 C 34.733937,64.246711 39.198631,68.236368 44.702687,68.236371 C 49.236765,68.236371 53.055952,65.532924 54.265187,61.830121 C 54.348925,61.744422 54.463286,61.676204 54.483937,61.548871 C 55.034032,58.157021 55.4128,58.145401 55.0625,48.5 C 54.7122,38.854599 53.43781,29.341817 51.8125,24.625 C 51.67156,24.215466 51.32868,23.908062 50.90625,23.8125 C 39.70956,21.205233 31.71919,15.745835 23.40625,10.0625 C 23.16035,9.8907192 22.86089,9.8130797 22.5625,9.84375 C 22.21054,9.8804787 21.89599,10.057818 21.6875,10.34375 C 21.47901,10.629682 21.39611,10.997414 21.46875,11.34375 C 24.562309,27.695418 25.697314,42.083831 24.9375,55.53125 C 23.126388,53.287551 20.17468,51.812501 16.84375,51.8125 C 11.339695,51.8125 6.8749998,55.80216 6.875,60.71875 C 6.875,65.63534 11.339695,69.625002 16.84375,69.625 C 21.730902,69.625 25.805394,66.490733 26.65625,62.34375 C 26.840665,62.148845 26.971233,61.912648 27,61.625 C 28.265127,48.973815 27.731816,35.5695 25.53125,20.71875 C 23.330684,5.868 25.196554,18.551782 25,17.34375 C 24.803446,16.135718 24.624334,14.946587 24.40625,13.71875 C 31.76008,18.705105 39.4041,23.477734 49.5625,26 C 49.936178,27.172796 50.310095,28.730295 50.65625,30.53125 z"
         transform="matrix(1.4373625,0,0,1.2817685,505.34927,367.58824)"
         id="path2575" />
      <path
         sodipodi:nodetypes="cssccssscsccc"
         id="path2195"
         transform="translate(704.49378,323.45335)"
         d="M -69.90625,114.71875 C -70.012439,114.71151 -70.142776,114.74017 -70.25,114.75 C -70.755896,114.79708 -71.200324,115.0085 -71.5,115.375 C -71.799679,115.7415 -71.91691,116.21233 -71.8125,116.65625 C -67.365931,137.6153 -65.720372,156.07602 -66.8125,173.3125 C -69.415725,170.43659 -73.680996,168.53125 -78.46875,168.53125 C -86.380074,168.53125 -92.78125,173.63557 -92.78125,179.9375 C -92.781246,186.23943 -86.380072,191.375 -78.46875,191.375 C -71.444142,191.37499 -65.566739,187.34672 -64.34375,182.03125 C -64.078679,181.78143 -63.885099,181.46245 -63.84375,181.09375 C -62.025306,164.87785 -62.805739,147.72272 -65.96875,128.6875 L -69.03125,115.03125 C -69.296338,114.86611 -69.587684,114.74048 -69.90625,114.71875 z"
         style="fill:#000000;fill-opacity:1;fill-rule:nonzero;stroke:none;stroke-width:0.54175824;stroke-linecap:butt;stroke-linejoin:miter;stroke-miterlimit:4;stroke-dasharray:none;stroke-opacity:1" />
      <path
         id="path2197"
         transform="matrix(1.4373625,0,0,1.2817685,663.51117,410.5179)"
         d="M 50.65625,30.53125 C 51.002405,32.332205 50.429625,28.840557 51.125,33.25 C 51.820375,37.659443 52.363367,43.079488 52.5625,48.5625 C 52.805984,55.266658 53.133924,55.540234 53.733937,55.580121 C 52.144933,52.543337 48.700976,50.423872 44.702687,50.423871 C 39.198632,50.423871 34.733938,54.41353 34.733937,59.330121 C 34.733937,64.246711 39.198631,68.236368 44.702687,68.236371 C 49.236765,68.236371 53.055952,65.532924 54.265187,61.830121 C 54.348925,61.744422 54.463286,61.676204 54.483937,61.548871 C 55.034032,58.157021 55.4128,58.145401 55.0625,48.5 C 54.7122,38.854599 53.43781,29.341817 51.8125,24.625 C 51.67156,24.215466 51.32868,23.908062 50.90625,23.8125 C 39.70956,21.205233 31.71919,15.745835 23.40625,10.0625 C 23.16035,9.8907192 22.86089,9.8130797 22.5625,9.84375 C 22.21054,9.8804787 21.89599,10.057818 21.6875,10.34375 C 21.47901,10.629682 21.39611,10.997414 21.46875,11.34375 C 24.562309,27.695418 25.697314,42.083831 24.9375,55.53125 C 23.126388,53.287551 20.17468,51.812501 16.84375,51.8125 C 11.339695,51.8125 6.8749998,55.80216 6.875,60.71875 C 6.875,65.63534 11.339695,69.625002 16.84375,69.625 C 21.730902,69.625 25.805394,66.490733 26.65625,62.34375 C 26.840665,62.148845 26.971233,61.912648 27,61.625 C 28.265127,48.973815 27.731816,35.5695 25.53125,20.71875 C 23.330684,5.868 25.196554,18.551782 25,17.34375 C 24.803446,16.135718 24.624334,14.946587 24.40625,13.71875 C 31.76008,18.705105 39.4041,23.477734 49.5625,26 C 49.936178,27.172796 50.310095,28.730295 50.65625,30.53125 z"
         style="fill:#000000;fill-opacity:1;fill-rule:nonzero;stroke:none;stroke-width:0.54175824;stroke-linecap:butt;stroke-linejoin:miter;stroke-miterlimit:4;stroke-dasharray:none;stroke-opacity:1"
         sodipodi:nodetypes="ccscssscssscccsccssscsccccc" />
    </g>
    <g
       id="g2281"
       transform="matrix(0.3634719,0.9316051,-0.9316051,0.3634719,909.61287,-44.931689)"
       style="fill:#ffffff;stroke:#000000;stroke-width:2.00000024;stroke-miterlimit:4;stroke-dasharray:none">
      <path
         style="fill:#ffffff;fill-opacity:1;fill-rule:nonzero;stroke:#000000;stroke-width:2.00000024;stroke-linecap:round;stroke-miterlimit:4;stroke-opacity:1;stroke-dasharray:none;stroke-dashoffset:0"
         id="path2261"
         d="m 296.11323,675.51925 c 10.39152,3.15835 20.53862,2.65057 30.54288,0 l -1.98174,-28.16153 -26.5794,0 -1.98174,28.16153 z"
         inkscape:connector-curvature="0" />
      <path
         style="fill:#ffffff;fill-opacity:1;fill-rule:nonzero;stroke:#000000;stroke-width:2.00000024;stroke-linecap:round;stroke-miterlimit:4;stroke-opacity:1;stroke-dasharray:none;stroke-dashoffset:0"
         id="path2259"
         d="m 298.51218,637.86624 c 8.97194,7.61052 17.47877,6.15127 25.74498,0 l 2.08604,-193.16721 -29.91706,0 2.08604,193.16721 z"
         inkscape:connector-curvature="0" />
      <path
         style="fill:#ffffff;fill-opacity:1;fill-rule:nonzero;stroke:#000000;stroke-width:2.00000024;stroke-linecap:round;stroke-miterlimit:4;stroke-opacity:1;stroke-dasharray:none;stroke-dashoffset:0"
         id="path2257"
         d="m 329.88947,409.86218 c 0,0 -1.66883,-32.54221 -1.66883,-50.89935 0,-18.35714 0,-40.05195 5.00649,-47.56169 5.00649,-7.50974 -48.69141,-7.50974 -43.68492,0 5.00649,7.50974 5.00649,29.20455 5.00649,47.56169 0,18.35714 -1.66883,50.89935 -1.66883,50.89935"
         inkscape:connector-curvature="0" />
      <path
         style="fill:#ffffff;fill-opacity:1;fill-rule:nonzero;stroke:#000000;stroke-width:2.00000024;stroke-linecap:round;stroke-miterlimit:4;stroke-opacity:1;stroke-dasharray:none;stroke-dashoffset:0"
         id="path2255"
         d="m 331.5583,301.38816 c 4.2017,-22.22709 6.97804,-40.55079 -5.00649,-57.15747 l -30.33428,0 c -11.98453,16.60668 -9.20819,34.93038 -5.00649,57.15747"
         inkscape:connector-curvature="0" />
      <path
         style="fill:#ffffff;fill-opacity:1;fill-rule:nonzero;stroke:#000000;stroke-width:2.00000024;stroke-linecap:round;stroke-miterlimit:4;stroke-opacity:1;stroke-dasharray:none;stroke-dashoffset:0"
         id="path2253"
         d="m 293.71429,435.72907 c 7.50974,8.34416 27.83102,8.34416 35.34076,0 7.50974,-8.34416 5.84091,-20.02598 2.50325,-24.19806 -3.33766,-4.17208 -37.0096,-4.17208 -40.34726,0 -3.33766,4.17208 -5.00649,15.8539 2.50325,24.19806 z"
         inkscape:connector-curvature="0" />
      <path
         style="fill:#ffffff;fill-opacity:1;fill-rule:nonzero;stroke:#000000;stroke-width:2.00000024;stroke-linecap:round;stroke-miterlimit:4;stroke-opacity:1;stroke-dasharray:none;stroke-dashoffset:0"
         id="path2170"
         d="m 301.64123,685.32363 c 0,-3.33448 19.48688,-3.33448 19.48688,0 0,3.33448 2.29375,1.94699 2.50324,5.11079 0.21412,3.23361 -2.95408,5.83996 -2.92045,10.95171 0.1043,15.64529 12.62053,24.71956 12.51623,29.30884 -0.13337,5.73506 -14.37329,8.03125 -21.84246,8.03125 -7.13589,0 -21.70909,-2.29619 -21.84246,-8.03125 -0.1043,-4.58928 12.41193,-13.66355 12.51623,-29.30884 0.0336,-5.11175 -3.13457,-7.7181 -2.92045,-10.95171 0.20949,-3.1638 2.50324,-1.77631 2.50324,-5.11079 z"
         inkscape:connector-curvature="0" />
      <path
         d="m 293.91689,301.57309 35.26433,0 c 2.75716,0 4.97682,2.21966 4.97682,4.97682 0,2.75716 -0.43332,5.07606 -3.19048,5.07606 l -39.43246,0 c -2.75716,0 -2.59504,-2.3189 -2.59504,-5.07606 0,-2.75716 2.21967,-4.97682 4.97683,-4.97682 z"
         style="fill:#ffffff;fill-opacity:1;fill-rule:nonzero;stroke:#000000;stroke-width:2.00000024;stroke-linecap:round;stroke-miterlimit:4;stroke-opacity:1;stroke-dasharray:none;stroke-dashoffset:0"
         transform="translate(-0.1634825,0)"
         sodipodi:nodetypes="ccsccsc"
         id="rect2196"
         inkscape:connector-curvature="0" />
      <rect
         style="fill:#ffffff;fill-opacity:1;fill-rule:nonzero;stroke:#000000;stroke-width:2.00000024;stroke-linecap:round;stroke-miterlimit:4;stroke-opacity:1;stroke-dasharray:none;stroke-dashoffset:0"
         id="rect2198"
         width="41.236523"
         transform="translate(-0.1643775,0)"
         y="407.36609"
         ry="3.4126778"
         x="290.93079"
         height="6.8253555" />
      <path
         d="m 295.7654,434.38312 c 10.82982,2.81537 21.21083,2.48907 31.28288,0 1.89062,0 3.41268,1.52205 3.41268,3.41268 l 0,3.98145 c 0,1.89063 -1.52206,3.41268 -3.41268,3.41268 -10.00452,2.11553 -20.52226,1.66497 -31.28288,0 -1.89062,0 -3.41268,-1.52205 -3.41268,-3.41268 l 0,-3.98145 c 0,-1.89063 1.52206,-3.41268 3.41268,-3.41268 z"
         style="fill:#ffffff;fill-opacity:1;fill-rule:nonzero;stroke:#000000;stroke-width:2.00000024;stroke-linecap:round;stroke-miterlimit:4;stroke-opacity:1;stroke-dasharray:none;stroke-dashoffset:0"
         transform="translate(-0.02217,0)"
         sodipodi:nodetypes="ccccccccc"
         id="rect2200"
         inkscape:connector-curvature="0" />
      <path
         d="m 299.46248,637.43744 c 7.67853,2.3703 15.35705,2.17826 23.03558,0 1.89062,0 3.41267,1.52205 3.41267,3.41268 l 0,3.69706 c 0,1.89063 -1.52205,3.41268 -3.41267,3.41268 -8.10237,1.69537 -15.68923,1.32871 -23.03558,0 -1.89062,0 -3.41268,-1.52205 -3.41268,-3.41268 l 0,-3.69706 c 0,-1.89063 1.52206,-3.41268 3.41268,-3.41268 z"
         style="fill:#ffffff;fill-opacity:1;fill-rule:nonzero;stroke:#000000;stroke-width:2.00000024;stroke-linecap:round;stroke-miterlimit:4;stroke-opacity:1;stroke-dasharray:none;stroke-dashoffset:0"
         transform="translate(0.404405,0)"
         sodipodi:nodetypes="ccccccccc"
         id="rect2203"
         inkscape:connector-curvature="0" />
      <path
         d="m 298.6093,674.6925 c 8.62649,2.31601 16.11543,2.56785 25.87948,0 1.89062,0 3.41267,1.52206 3.41267,3.41268 l 0,2.8439 c 0,1.89062 -1.52205,3.41268 -3.41267,3.41268 -8.62649,1.92674 -17.25299,1.05 -25.87948,0 -1.89062,0 -3.41268,-1.52206 -3.41268,-3.41268 l 0,-2.8439 c 0,-1.89062 1.52206,-3.41268 3.41268,-3.41268 z"
         style="fill:#ffffff;fill-opacity:1;fill-rule:nonzero;stroke:#000000;stroke-width:2.00000024;stroke-linecap:round;stroke-miterlimit:4;stroke-opacity:1;stroke-dasharray:none;stroke-dashoffset:0"
         transform="translate(-0.164365,0)"
         sodipodi:nodetypes="ccccccccc"
         id="rect2206"
         inkscape:connector-curvature="0" />
      <path
         style="fill:#ffffff;fill-opacity:1;fill-rule:nonzero;stroke:#000000;stroke-width:2.00000024;stroke-linecap:round;stroke-miterlimit:4;stroke-opacity:1;stroke-dasharray:none;stroke-dashoffset:0"
         id="path2249"
         d="m 304.44419,319.8958 c 0.16225,-1.71865 0.22476,-3.39069 0.0611,-4.95641 l -10e-6,0 13.08194,0 c 0.0128,1.75523 0.25014,3.64032 0.55344,5.57021"
         inkscape:connector-curvature="0" />
      <path
         style="fill:#ffffff;fill-opacity:1;fill-rule:nonzero;stroke:#000000;stroke-width:2.00000024;stroke-linecap:round;stroke-miterlimit:4;stroke-opacity:1;stroke-dasharray:none;stroke-dashoffset:0"
         id="rect2209"
         sodipodi:nodetypes="cccc"
         d="m 318.03472,319.90943 c 1.19988,7.63484 3.5386,16.57092 -3.00703,20.34065 l -7.67854,10e-6 c -6.28314,-4.26591 -3.65678,-12.79994 -2.94026,-20.38959"
         inkscape:connector-curvature="0" />
      <path
         style="fill:#ffffff;fill-opacity:1;fill-rule:nonzero;stroke:#000000;stroke-width:2.00000024;stroke-linecap:round;stroke-miterlimit:4;stroke-opacity:1;stroke-dasharray:none;stroke-dashoffset:0"
         id="path2214"
         sodipodi:cx="310.83807"
         sodipodi:cy="465.95038"
         sodipodi:type="arc"
         d="m 317.09465,465.95038 c 0,3.45541 -2.80116,6.25657 -6.25658,6.25657 -3.45541,0 -6.25657,-2.80116 -6.25657,-6.25657 0,-3.45541 2.80116,-6.25658 6.25657,-6.25658 3.45542,0 6.25658,2.80117 6.25658,6.25658 z"
         transform="translate(0.5465963,0)"
         sodipodi:rx="6.2565761"
         sodipodi:ry="6.2565761" />
      <path
         style="fill:#ffffff;fill-opacity:1;fill-rule:nonzero;stroke:#000000;stroke-width:2.00000024;stroke-linecap:round;stroke-miterlimit:4;stroke-opacity:1;stroke-dasharray:none;stroke-dashoffset:0"
         id="path2218"
         sodipodi:cx="310.83807"
         sodipodi:cy="465.95038"
         sodipodi:type="arc"
         d="m 317.09465,465.95038 c 0,3.45541 -2.80116,6.25657 -6.25658,6.25657 -3.45541,0 -6.25657,-2.80116 -6.25657,-6.25657 0,-3.45541 2.80116,-6.25658 6.25657,-6.25658 3.45542,0 6.25658,2.80117 6.25658,6.25658 z"
         transform="translate(0.5465963,34.695557)"
         sodipodi:rx="6.2565761"
         sodipodi:ry="6.2565761" />
      <path
         style="fill:#ffffff;fill-opacity:1;fill-rule:nonzero;stroke:#000000;stroke-width:2.00000024;stroke-linecap:round;stroke-miterlimit:4;stroke-opacity:1;stroke-dasharray:none;stroke-dashoffset:0"
         id="path2220"
         sodipodi:cx="310.83807"
         sodipodi:cy="465.95038"
         sodipodi:type="arc"
         d="m 317.09465,465.95038 c 0,3.45541 -2.80116,6.25657 -6.25658,6.25657 -3.45541,0 -6.25657,-2.80116 -6.25657,-6.25657 0,-3.45541 2.80116,-6.25658 6.25657,-6.25658 3.45542,0 6.25658,2.80117 6.25658,6.25658 z"
         transform="translate(0.5465963,71.950622)"
         sodipodi:rx="6.2565761"
         sodipodi:ry="6.2565761" />
      <path
         style="fill:#ffffff;fill-opacity:1;fill-rule:nonzero;stroke:#000000;stroke-width:3.02662492;stroke-linecap:round;stroke-miterlimit:4;stroke-opacity:1;stroke-dasharray:none;stroke-dashoffset:0"
         id="path2222"
         sodipodi:cx="310.83807"
         sodipodi:cy="465.95038"
         sodipodi:type="arc"
         d="m 317.09465,465.95038 c 0,3.45541 -2.80116,6.25657 -6.25658,6.25657 -3.45541,0 -6.25657,-2.80116 -6.25657,-6.25657 0,-3.45541 2.80116,-6.25658 6.25657,-6.25658 3.45542,0 6.25658,2.80117 6.25658,6.25658 z"
         transform="matrix(0.6608021,0,0,0.6608021,105.98223,260.71413)"
         sodipodi:rx="6.2565761"
         sodipodi:ry="6.2565761" />
      <path
         style="fill:#ffffff;fill-opacity:1;fill-rule:nonzero;stroke:#000000;stroke-width:2.00000024;stroke-linecap:round;stroke-miterlimit:4;stroke-opacity:1;stroke-dasharray:none;stroke-dashoffset:0"
         id="path2224"
         sodipodi:cx="310.83807"
         sodipodi:cy="465.95038"
         sodipodi:type="arc"
         d="m 317.09465,465.95038 c 0,3.45541 -2.80116,6.25657 -6.25658,6.25657 -3.45541,0 -6.25657,-2.80116 -6.25657,-6.25657 0,-3.45541 2.80116,-6.25658 6.25657,-6.25658 3.45542,0 6.25658,2.80117 6.25658,6.25658 z"
         transform="translate(0.5465963,136.50711)"
         sodipodi:rx="6.2565761"
         sodipodi:ry="6.2565761" />
      <g
         style="fill:#ffffff;fill-opacity:1;stroke:#000000;stroke-width:2.00000024;stroke-miterlimit:4;stroke-opacity:1;stroke-dasharray:none"
         transform="translate(0.6888054,0)"
         id="g2233">
        <path
           style="fill:#ffffff;fill-opacity:1;fill-rule:nonzero;stroke:#000000;stroke-width:3.52000022;stroke-linecap:round;stroke-miterlimit:4;stroke-opacity:1;stroke-dasharray:none;stroke-dashoffset:0"
           id="path2216"
           sodipodi:cx="310.83807"
           sodipodi:cy="465.95038"
           sodipodi:type="arc"
           d="m 317.09465,465.95038 c 0,3.45541 -2.80116,6.25657 -6.25658,6.25657 -3.45541,0 -6.25657,-2.80116 -6.25657,-6.25657 0,-3.45541 2.80116,-6.25658 6.25657,-6.25658 3.45542,0 6.25658,2.80117 6.25658,6.25658 z"
           transform="matrix(0.5681818,0,0,0.5681818,130.10187,363.73462)"
           sodipodi:rx="6.2565761"
           sodipodi:ry="6.2565761" />
        <path
           style="fill:#ffffff;fill-opacity:1;fill-rule:nonzero;stroke:#000000;stroke-width:4.88888931;stroke-linecap:round;stroke-miterlimit:4;stroke-opacity:1;stroke-dasharray:none;stroke-dashoffset:0"
           id="path2228"
           sodipodi:cx="310.83807"
           sodipodi:cy="465.95038"
           sodipodi:type="arc"
           d="m 317.09465,465.95038 c 0,3.45541 -2.80116,6.25657 -6.25658,6.25657 -3.45541,0 -6.25657,-2.80116 -6.25657,-6.25657 0,-3.45541 2.80116,-6.25658 6.25657,-6.25658 3.45542,0 6.25658,2.80117 6.25658,6.25658 z"
           transform="matrix(0.4090909,0,0,0.4090909,188.51166,439.14284)"
           sodipodi:rx="6.2565761"
           sodipodi:ry="6.2565761" />
      </g>
      <g
         style="fill:#ffffff;fill-opacity:1;stroke:#000000;stroke-width:2.17319131;stroke-miterlimit:4;stroke-opacity:1;stroke-dasharray:none"
         transform="matrix(0.8469623,0,0,1,44.828387,0)"
         id="g2237">
        <path
           style="fill:#ffffff;fill-opacity:1;fill-rule:nonzero;stroke:#000000;stroke-width:3.82481694;stroke-linecap:round;stroke-miterlimit:4;stroke-opacity:1;stroke-dasharray:none;stroke-dashoffset:0"
           id="path2226"
           sodipodi:cx="310.83807"
           sodipodi:cy="465.95038"
           sodipodi:type="arc"
           d="m 317.09465,465.95038 c 0,3.45541 -2.80116,6.25657 -6.25658,6.25657 -3.45541,0 -6.25657,-2.80116 -6.25657,-6.25657 0,-3.45541 2.80116,-6.25658 6.25657,-6.25658 3.45542,0 6.25658,2.80117 6.25658,6.25658 z"
           transform="matrix(0.5681818,0,0,0.5681818,128.96431,396.72384)"
           sodipodi:rx="6.2565761"
           sodipodi:ry="6.2565761" />
        <path
           style="fill:#ffffff;fill-opacity:1;fill-rule:nonzero;stroke:#000000;stroke-width:4.95160484;stroke-linecap:round;stroke-miterlimit:4;stroke-opacity:1;stroke-dasharray:none;stroke-dashoffset:0"
           id="path2230"
           sodipodi:cx="310.83807"
           sodipodi:cy="465.95038"
           sodipodi:type="arc"
           d="m 317.09465,465.95038 c 0,3.45541 -2.80116,6.25657 -6.25658,6.25657 -3.45541,0 -6.25657,-2.80116 -6.25657,-6.25657 0,-3.45541 2.80116,-6.25658 6.25657,-6.25658 3.45542,0 6.25658,2.80117 6.25658,6.25658 z"
           transform="matrix(0.4708517,0,0,0.4090909,168.84731,472.13208)"
           sodipodi:rx="6.2565761"
           sodipodi:ry="6.2565761" />
      </g>
    </g>
  </g>
</svg>
